# AST/ASF file generated using VICON BodyLanguage
# -----------------------------------------------
:version 1.10
:name VICON
:units
  mass 1.0
  length 0.45
  angle deg
:documentation
   .ast/.asf automatically generated from VICON data using
   VICON BodyBuilder and BodyLanguage model FoxedUp or BRILLIANT.MOD
:root
   order TX TY TZ RX RY RZ
   axis XYZ
   position 0 0 0  
   orientation 0 0 0 
:bonedata
  begin
     id 1 
     name lhipjoint
     direction 0.682418 -0.694059 0.22932 
     length 2.25561 
     axis 0 0 0  XYZ
  end
  begin
     id 2 
     name lfemur
     direction 0.34202 -0.939693 0  
     length 6.96448  
     axis 0 0 20  XYZ
    dof rx ry rz
    limits (-160.0 20.0)
           (-70.0 70.0)
           (-60.0 70.0)
  end
  begin
     id 3 
     name ltibia
     direction 0.34202 -0.939693 0   
     length 6.88553   
     axis 0 0 20   XYZ
    dof rx
    limits (-10.0 170.0)
  end
  begin
     id 4 
     name lfoot
     direction 0.0723587 -0.198804 0.977364   
     length 1.88518   
     axis -90 7.62852e-016 20   XYZ
    dof rx rz
    limits (-45.0 90.0)
           (-70.0 20.0)
  end
  begin
     id 5 
     name ltoes
     direction 1.53558e-011 -4.21962e-011 1   
     length 0.952124   
     axis -90 7.62852e-016 20   XYZ
    dof rx
    limits (-90.0 20.0)
  end
  begin
     id 6 
     name rhipjoint
     direction -0.657603 -0.71533 0.236348   
     length 2.18854  
     axis 0 0 0  XYZ 
  end
  begin
     id 7 
     name rfemur
     direction -0.34202 -0.939693 0   
     length 6.86686   
     axis 0 0 -20   XYZ
    dof rx ry rz
    limits (-160.0 20.0)
           (-70.0 70.0)
           (-70.0 60.0)
  end
  begin
     id 8 
     name rtibia
     direction -0.34202 -0.939693 0   
     length 6.59503   
     axis 0 0 -20   XYZ
    dof rx
    limits (-10.0 170.0)
 end
 begin
     id 9 
     name rfoot
     direction -0.101977 -0.280179 0.954516   
     length 1.93723  
     axis -90 -7.62852e-016 -20   XYZ
    dof rx rz
    limits (-45.0 90.0)
           (-20.0 70.0)
  end
  begin
     id 10 
     name rtoes
     direction -1.53564e-011 -4.21897e-011 1   
     length 0.970315   
     axis -90 -7.62852e-016 -20   XYZ
    dof rx
    limits (-90.0 20.0)
  end
  begin
     id 11 
     name lowerback
     direction -0.0339559 0.999421 -0.00235966   
     length 1.88543   
     axis 0 0 0   XYZ
    dof rx ry rz
    limits (-20.0 45.0)
           (-30.0 30.0)
           (-30.0 30.0)
  end
  begin
     id 12 
     name upperback
     direction 0.00401003 0.999739 0.0224689   
     length 1.8856   
     axis 0 0 0   XYZ
    dof rx ry rz
    limits (-20.0 45.0)
           (-30.0 30.0)
           (-30.0 30.0)
  end
  begin
     id 13 
     name thorax
     direction 0.0198619 0.999546 0.0226536   
     length 1.88352   
     axis 0 0 0   XYZ
    dof rx ry rz
    limits (-20.0 45.0)
           (-30.0 30.0)
           (-30.0 30.0)
  end
  begin
     id 14 
     name lowerneck
     direction -0.0461848 0.998632 0.0245198   
     length 1.34895   
     axis 0 0 0   XYZ
    dof rx ry rz
    limits (-20.0 45.0)
           (-30.0 30.0)
           (-30.0 30.0)
  end
  begin
     id 15 
     name upperneck
     direction -0.0180627 0.994724 -0.100984   
     length 1.35214   
     axis 0 0 0   XYZ
    dof rx ry rz
    limits (-20.0 45.0)
           (-30.0 30.0)
           (-30.0 30.0)
  end
  begin
     id 16
     name head
     direction -0.00374772 0.999293 -0.037403  
     length 1.3568  
     axis 0 0 0   XYZ
    dof rx ry rz
    limits (-20.0 45.0)
           (-30.0 30.0)
           (-30.0 30.0)
  end
  begin
     id 17 
     name lclavicle
     direction 0.971773 0.191119 0.138311  
     length 2.84954  
     axis 0 0 0   XYZ
    dof ry rz
    limits (-20.0 10.0)
           (0.0 20.0)
  end
  begin
     id 18 
     name lhumerus
     direction 1 -4.4897e-011 -2.43761e-027   
     length 4.40919   
     axis 180 -30 -90   XYZ
    dof rx ry rz
    limits (-60.0 90.0)
           (-90.0 90.0)
           (-90.0 90.0)
  end
  begin
     id 19
     name lradius
     direction 1 -4.4896e-011 -9.1621e-027   
     length 3.03857   
     axis 180 -30 -90   XYZ
    dof rx
    limits (-10.0 170.0)
  end
  begin
     id 20
     name lwrist
     direction 1 -4.4896e-011 -1.41363e-026   
     length 1.51928   
     axis 1.07133e-014 90 90   XYZ
    dof ry
    limits (-180.0 0.0)
 end
  begin
     id 21 
     name lhand
     direction 1 -4.48978e-011 -2.82725e-026   
     length 0.523208   
     axis 1.80403e-014 90 90   XYZ
    dof rx rz
    limits (-90.0 90.0)
           (-45.0 45.0)
  end
  begin
     id 22 
     name lfingers
     direction 1 -4.48977e-011 -5.6545e-026   
     length 0.421824   
     axis 3.60806e-014 90 90   XYZ
    dof rx
    limits (0.0 90.0)
  end
  begin
     id 23
     name lthumb
     direction 0.707107 -6.34962e-011 0.707107   
     length 0.605657   
     axis -90 45 2.85299e-015   XYZ
    dof rx rz
    limits (-45.0 45.0)
           (-45.0 45.0)
  end
  begin
     id 24 
     name rclavicle
     direction -0.957247 0.24311 0.156766   
     length 3.12406  
     axis 0 0 0   XYZ 
    dof ry rz
    limits (-10.0 20.0)
           (-20.0 0.0)
  end
  begin
     id 25 
     name rhumerus
     direction -1 -4.48964e-011 -1.70632e-027  
     length 4.61969   
     axis 180 30 90   XYZ
    dof rx ry rz
    limits (-90.0 60.0)
           (-90.0 90.0)
           (-90.0 90.0)
  end
  begin
     id 26 
     name rradius
     direction -1 -4.48966e-011 -6.60395e-027   
     length 3.09382   
     axis 180 30 90   XYZ
    dof rx
    limits (-10.0 170.0)
  end
  begin
     id 27 
     name rwrist
     direction -1 -4.48963e-011 -1.41363e-026   
     length 1.54691   
     axis 1.07133e-014 -90 -90   XYZ
    dof ry
    limits (-180.0 0.0)
  end
  begin
     id 28
     name rhand
     direction -1 -4.49013e-011 -2.82725e-026   
     length 0.500896   
     axis 1.80403e-014 -90 -90   XYZ
    dof rx rz
    limits (-90.0 90.0)
           (-45.0 45.0)
  end
  begin
     id 29
     name rfingers
     direction -1 -4.48902e-011 -5.6545e-026   
     length 0.403835   
     axis 3.60806e-014 -90 -90   XYZ
    dof rx
    limits (0.0 90.0)
  end
  begin
     id 30
     name rthumb
     direction -0.707107 -6.34953e-011 0.707107   
     length 0.579829   
     axis -90 -45 -2.85299e-015   XYZ
    dof rx rz
    limits (-45.0 45.0)
           (-45.0 45.0)
  end
:hierarchy
  begin
    root lhipjoint rhipjoint lowerback
    lhipjoint lfemur
    lfemur ltibia
    ltibia lfoot
    lfoot ltoes
    rhipjoint rfemur
    rfemur rtibia
    rtibia rfoot
    rfoot rtoes
    lowerback upperback
    upperback thorax
    thorax lowerneck lclavicle rclavicle
    lowerneck upperneck
    upperneck head
    lclavicle lhumerus
    lhumerus lradius
    lradius lwrist
    lwrist lhand lthumb
    lhand lfingers
    rclavicle rhumerus
    rhumerus rradius
    rradius rwrist
    rwrist rhand rthumb
    rhand rfingers
  end

#!OML:ASF E:\madness\Project 1\Capture day 1\Session 1\Female1.ASF
:FULLY-SPECIFIED
:DEGREES
291
root 32.4048 16.0014 1.14361 -359.244 -85.2191 367.045
lowerback -2.81669 -0.0497643 -5.16187
upperback -1.95479 0.0192729 2.43744
thorax -0.441201 0.0610891 5.42698
lowerneck -0.362996 11.1741 7.02457
upperneck 6.46556 15.6653 -13.5745
head 3.6218 7.52505 -4.53628
rclavicle -3.40419e-015 8.74653e-015
rhumerus -67.1582 24.5639 -75.9155
rradius 53.9653
rwrist 1.10434
rhand -3.84005 -47.6206
rfingers 7.12502
rthumb 21.9075 -76.4002
lclavicle -3.40419e-015 8.74653e-015
lhumerus -66.522 -35.8512 73.6965
lradius 82.7844
lwrist -8.57766
lhand -16.3867 -22.1054
lfingers 7.12502
lthumb 9.82711 7.64531
rfemur -18.716 4.69999 20.1558
rtibia 31.4425
rfoot -19.3938 -20.6942
rtoes -3.15351
lfemur -24.2101 -12.2979 -16.3141
ltibia 34.629
lfoot -13.2586 5.2822
ltoes -3.59775
292
root 32.3988 15.9969 1.1422 -358.982 -85.1178 366.717
lowerback -2.73085 -0.019484 -5.13851
upperback -1.88261 0.0573027 2.44606
thorax -0.419589 0.0781159 5.42339
lowerneck -0.687449 11.5205 7.07947
upperneck 6.69939 16.1642 -13.7117
head 3.8151 7.74506 -4.51863
rclavicle -2.10712e-014 -1.11319e-014
rhumerus -67.1638 24.262 -75.6905
rradius 54.1251
rwrist 1.06052
rhand -3.69859 -47.6368
rfingers 7.12502
rthumb 22.0434 -76.4005
lclavicle -2.10712e-014 -1.11319e-014
lhumerus -65.9761 -35.7701 73.1086
lradius 83.2117
lwrist -9.4627
lhand -17.6681 -22.8202
lfingers 7.12502
lthumb 8.59065 6.98507
rfemur -18.622 4.70128 20.1955
rtibia 31.5009
rfoot -19.3749 -20.7908
rtoes -3.36574
lfemur -24.1663 -12.3178 -16.3254
ltibia 34.6921
lfoot -13.2614 5.23863
ltoes -4.12373
293
root 32.3904 15.9982 1.13746 -359.308 -84.9492 366.983
lowerback -2.50547 0.0357097 -5.12948
upperback -2.03584 0.117959 2.37175
thorax -0.71195 0.12044 5.34109
lowerneck -0.204629 11.712 7.67027
upperneck 6.85242 16.4676 -13.9536
head 3.88245 7.91553 -4.67707
rclavicle 1.12313e-014 2.26615e-014
rhumerus -67.6429 23.8251 -75.6441
rradius 54.3147
rwrist 0.963494
rhand -3.56708 -47.7112
rfingers 7.12502
rthumb 22.1696 -76.4599
lclavicle 1.12313e-014 2.26615e-014
lhumerus -66.0665 -36.0547 72.8971
lradius 83.7524
lwrist -9.34279
lhand -18.3028 -21.9676
lfingers 7.12502
lthumb 7.97807 7.86188
rfemur -18.4828 4.6946 20.1943
rtibia 31.5103
rfoot -19.4695 -20.9318
rtoes -3.17554
lfemur -24.1284 -12.4119 -16.3618
ltibia 34.7361
lfoot -13.3386 5.04798
ltoes -3.7964
294
root 32.3832 15.9992 1.1351 -359.392 -84.8379 366.876
lowerback -2.23878 0.129089 -5.06718
upperback -2.09012 0.229189 2.30576
thorax -0.931131 0.183303 5.23734
lowerneck 0.26607 11.9592 8.16623
upperneck 6.89453 16.8411 -14.1847
head 3.92066 8.12275 -4.81409
rclavicle -2.33572e-015 2.42517e-014
rhumerus -68.0304 23.3782 -75.5605
rradius 54.4654
rwrist 0.870821
rhand -3.59336 -47.5427
rfingers 7.12502
rthumb 22.1444 -76.2944
lclavicle -2.33572e-015 2.42517e-014
lhumerus -65.9276 -36.2793 72.5467
lradius 84.3504
lwrist -9.4435
lhand -18.3935 -21.4559
lfingers 7.12502
lthumb 7.89059 8.37685
rfemur -18.2022 4.62683 20.2323
rtibia 31.4741
rfoot -19.5208 -20.9468
rtoes -3.188
lfemur -23.9339 -12.5502 -16.3869
ltibia 34.7872
lfoot -13.3835 5.0724
ltoes -3.38309
295
root 32.3752 15.9995 1.13065 -358.774 -84.7179 366.272
lowerback -2.34493 0.179866 -5.01011
upperback -2.08297 0.300769 2.29055
thorax -0.872728 0.216367 5.19034
lowerneck 0.0384421 12.2288 8.30665
upperneck 7.41769 17.2497 -14.1136
head 4.16875 8.301 -4.74903
rclavicle -3.45388e-015 -1.11319e-014
rhumerus -68.2004 23.0232 -75.431
rradius 54.5704
rwrist 0.847618
rhand -3.74716 -47.3331
rfingers 7.12502
rthumb 21.9967 -76.1023
lclavicle -3.45388e-015 -1.11319e-014
lhumerus -65.6364 -36.3788 72.2123
lradius 84.7989
lwrist -9.14597
lhand -19.2777 -21.6026
lfingers 7.12502
lthumb 7.03708 8.26046
rfemur -18.1255 4.64718 20.3069
rtibia 31.3843
rfoot -19.5216 -21.0481
rtoes -3.00712
lfemur -23.9347 -12.6189 -16.3136
ltibia 34.7995
lfoot -13.38 5.12143
ltoes -3.78314
296
root 32.3718 15.9974 1.13158 -358.067 -84.6094 365.59
lowerback -2.43495 0.23232 -4.86474
upperback -2.05855 0.372578 2.28575
thorax -0.80452 0.247956 5.1041
lowerneck 0.31278 12.5225 8.49696
upperneck 7.18858 17.6642 -14.4209
head 4.14787 8.51874 -4.85238
rclavicle -3.62782e-015 -3.18055e-015
rhumerus -68.2681 22.6746 -75.2247
rradius 54.6346
rwrist 0.895285
rhand -3.77499 -47.2305
rfingers 7.12502
rthumb 21.97 -76.0028
lclavicle -3.62782e-015 -3.18055e-015
lhumerus -65.0294 -36.2577 71.4821
lradius 85.2975
lwrist -9.91052
lhand -18.7244 -21.5221
lfingers 7.12502
lthumb 7.57113 8.32234
rfemur -18.1038 4.62003 20.3677
rtibia 31.3053
rfoot -19.4112 -21.1376
rtoes -3.18866
lfemur -23.988 -12.67 -16.2469
ltibia 34.8164
lfoot -13.3982 5.1037
ltoes -4.09395
297
root 32.3563 15.9981 1.11854 -357.903 -84.4428 365.337
lowerback -2.41954 0.280263 -4.93929
upperback -2.08021 0.436834 2.28848
thorax -0.844501 0.282745 5.15025
lowerneck 0.469947 12.8273 8.51637
upperneck 7.19604 18.0908 -14.443
head 4.17867 8.73404 -4.83222
rclavicle -8.4732e-015 3.18055e-015
rhumerus -68.4754 22.1906 -75.0191
rradius 54.6292
rwrist 1.06009
rhand -3.91203 -46.9749
rfingers 7.12502
rthumb 21.8384 -75.7627
lclavicle -8.4732e-015 3.18055e-015
lhumerus -64.8405 -36.382 71.1234
lradius 85.9113
lwrist -9.59825
lhand -18.3785 -21.3496
lfingers 7.12502
lthumb 7.90506 8.48261
rfemur -17.8393 4.71485 20.4691
rtibia 31.2324
rfoot -19.6358 -21.3713
rtoes -2.93729
lfemur -23.8606 -12.6622 -16.207
ltibia 34.844
lfoot -13.657 4.9761
ltoes -4.01059
298
root 32.3465 15.9964 1.10754 -358.102 -84.2639 365.491
lowerback -2.23086 0.336096 -4.95082
upperback -2.22307 0.500388 2.22764
thorax -1.10546 0.324935 5.09226
lowerneck 0.768915 13.0605 8.7104
upperneck 7.44101 18.4343 -14.2965
head 4.2475 8.91724 -4.79859
rclavicle 1.27595e-014 2.50469e-014
rhumerus -68.8454 21.6521 -74.8629
rradius 54.7142
rwrist 1.19879
rhand -4.06346 -46.9237
rfingers 7.12502
rthumb 21.693 -75.7283
lclavicle 1.27595e-014 2.50469e-014
lhumerus -64.8467 -36.6605 70.9089
lradius 86.6188
lwrist -8.75647
lhand -18.1126 -20.7338
lfingers 7.12502
lthumb 8.16165 9.08854
rfemur -17.6734 4.64316 20.5121
rtibia 31.1802
rfoot -19.7198 -21.486
rtoes -3.03203
lfemur -23.8223 -12.6225 -16.2104
ltibia 34.878
lfoot -13.8276 4.81383
ltoes -3.71312
299
root 32.3452 15.9945 1.10043 -357.517 -84.2059 365.121
lowerback -2.2994 0.421163 -4.83789
upperback -2.39257 0.61053 2.15559
thorax -1.25338 0.384952 4.95382
lowerneck 1.34238 13.4336 8.83347
upperneck 7.28159 18.9482 -14.2646
head 4.17459 9.20467 -4.80317
rclavicle 1.83503e-014 2.06736e-014
rhumerus -69.1789 21.143 -74.7112
rradius 54.9172
rwrist 1.19851
rhand -4.04645 -46.9587
rfingers 7.12502
rthumb 21.7094 -75.7615
lclavicle 1.83503e-014 2.06736e-014
lhumerus -64.5326 -36.853 70.4379
lradius 86.9966
lwrist -8.43239
lhand -18.0003 -20.7605
lfingers 7.12502
lthumb 8.27 9.05759
rfemur -17.9007 4.55549 20.5566
rtibia 31.1586
rfoot -19.5886 -21.5031
rtoes -3.74997
lfemur -24.082 -12.4524 -16.1152
ltibia 34.8899
lfoot -13.8352 4.60145
ltoes -3.3366
300
root 32.3403 15.9941 1.09346 -357.331 -84.0795 364.989
lowerback -2.37084 0.478731 -4.79601
upperback -2.4352 0.688433 2.10524
thorax -1.26543 0.423919 4.87869
lowerneck 1.61233 13.7215 8.97459
upperneck 7.30261 19.3653 -14.3695
head 4.2108 9.42022 -4.83227
rclavicle -1.09953e-014 7.95139e-016
rhumerus -69.3644 20.6503 -74.5192
rradius 55.0594
rwrist 1.15585
rhand -4.17925 -46.7364
rfingers 7.12502
rthumb 21.5818 -75.5538
lclavicle -1.09953e-014 7.95139e-016
lhumerus -64.0341 -36.9965 69.9149
lradius 87.3126
lwrist -8.16913
lhand -17.7461 -20.583
lfingers 7.12502
lthumb 8.51538 9.22532
rfemur -17.9349 4.44938 20.5927
rtibia 31.1504
rfoot -19.5105 -21.5359
rtoes -4.07166
lfemur -24.157 -12.3808 -16.0701
ltibia 34.9042
lfoot -13.949 4.32219
ltoes -2.77785
